<?xml version="1.0" encoding="utf-8"?>
<!-- Generator: Adobe Illustrator 21.0.2, SVG Export Plug-In . SVG Version: 6.00 Build 0)  -->
<svg version="1.1" id="Layer_1" xmlns="http://www.w3.org/2000/svg" xmlns:xlink="http://www.w3.org/1999/xlink" x="0px" y="0px"
	 viewBox="0 0 452.6 412" style="enable-background:new 0 0 452.6 412;" xml:space="preserve">
<style type="text/css">
	.st0{fill:#002FA7;}
	.st1{fill:#4AFFFF;}
</style>
<title>logo</title>
<path class="st0" d="M298.1,51.5c-0.2,0-0.3,0-0.5,0l0,0h-45v309c0,0,45.3,0,45.5,0c85.3,0,154.5-69.2,154.5-154.5
	S383.4,51.5,298.1,51.5z"/>
<circle class="st1" cx="253.1" cy="206" r="154.5"/>
<polygon class="st1" points="137.3,143.8 206.4,0 73.6,0 0,209 92.1,209.2 31.5,412 268.2,144 "/>
<polygon class="st0" points="209.3,143.8 278.4,0 206.4,0 137.3,143.8 "/>
<polygon class="st0" points="268.2,144 31.7,411.8 31.6,412 103.6,412 103.7,411.8 340.2,144 "/>
</svg>
